# xmcd
#
# Track frame offsets:
#	150
#	15021
#	32547
#	45326
#	57242
#	76275
#	92902
#	106007
#	131318
#	145289
#
# Disc length: 2144
#
# Revision: 3
# Processed by: cddbd v1.5.1PL0 Copyright (c) Steve Scherf et al.
# Submitted via: audiograbber 1.82.02
# Normalized: r1:DSWAP,TDELIM( - ),TSWAP
#
DISCID=69085e0a
DTITLE=Various Artist - Classic Blues
DYEAR=2001
DGENRE=Blues
TTITLE0=B.B. King - Sweet Sixteen
TTITLE1=Bo Diddley - Bo Diddley
TTITLE2=Lightin' Hopkins - Bring Me My Shotgun
TTITLE3=Ray Charles - Baby Won't You Please Come Home
TTITLE4=B.B. King - You've Done Lost Your Good Thing
TTITLE5=Mike Bloomfield - Blues in B Flat
TTITLE6=Memphis Slim - Let The Good Times Roll
TTITLE7=Charles Brown - Big Legged Woman
TTITLE8=Clarence Frogman Henry - Ain't Got No Home
TTITLE9=Leadbelly - The Bourgeois Blues
EXTD=
EXTT0=
EXTT1=
EXTT2=
EXTT3=
EXTT4=
EXTT5=
EXTT6=
EXTT7=
EXTT8=
EXTT9=
PLAYORDER=
